<svg width="184" height="30" viewBox="0 0 184 30" fill="none" xmlns="http://www.w3.org/2000/svg">
<path d="M5.26953 29.2602H0.777344C0.647135 29.2602 0.582031 29.1951 0.582031 29.0648L0.660156 1.58438C0.660156 1.48021 0.71224 1.42813 0.816406 1.42813H13.6289C13.7591 1.42813 13.8242 1.48021 13.8242 1.58438V6.0961C13.8242 6.20027 13.7721 6.25235 13.668 6.25235H5.46484V12.4633H13.668C13.7721 12.4633 13.8242 12.5284 13.8242 12.6586L13.8633 17.1898C13.8633 17.294 13.7982 17.3461 13.668 17.3461H5.46484V29.0648C5.46484 29.1951 5.39974 29.2602 5.26953 29.2602ZM24.7812 29.6508C23.375 29.6508 22.0729 29.2862 20.875 28.557C19.6771 27.8279 18.7201 26.8513 18.0039 25.6273C17.3008 24.3904 16.9492 23.0427 16.9492 21.5844L17.0273 1.58438C17.0273 1.48021 17.0794 1.42813 17.1836 1.42813H21.6758C21.7799 1.42813 21.832 1.48021 21.832 1.58438V21.5844C21.832 22.4828 22.1185 23.251 22.6914 23.8891C23.2643 24.5141 23.9609 24.8266 24.7812 24.8266C25.6406 24.8266 26.3568 24.5141 26.9297 23.8891C27.5026 23.251 27.7891 22.4828 27.7891 21.5844V1.58438C27.7891 1.48021 27.8411 1.42813 27.9453 1.42813H32.4375C32.5417 1.42813 32.5938 1.48021 32.5938 1.58438L32.6719 21.5844C32.6719 23.0557 32.3203 24.4099 31.6172 25.6469C30.901 26.8708 29.9505 27.8474 28.7656 28.5766C27.5807 29.2927 26.2526 29.6508 24.7812 29.6508ZM44.3516 29.2602H39.8398C39.7227 29.2602 39.6641 29.1951 39.6641 29.0648V6.25235H34.4688C34.3385 6.25235 34.2734 6.18725 34.2734 6.05704L34.3125 1.58438C34.3125 1.48021 34.3646 1.42813 34.4688 1.42813H49.6641C49.8073 1.42813 49.8789 1.48021 49.8789 1.58438V6.05704C49.8789 6.18725 49.8268 6.25235 49.7227 6.25235H44.4688L44.5078 29.0648C44.5078 29.1951 44.4557 29.2602 44.3516 29.2602ZM59.1953 29.6508C57.7891 29.6508 56.487 29.2862 55.2891 28.557C54.0911 27.8279 53.1341 26.8513 52.418 25.6273C51.7148 24.3904 51.3633 23.0427 51.3633 21.5844L51.4414 1.58438C51.4414 1.48021 51.4935 1.42813 51.5977 1.42813H56.0898C56.194 1.42813 56.2461 1.48021 56.2461 1.58438V21.5844C56.2461 22.4828 56.5326 23.251 57.1055 23.8891C57.6784 24.5141 58.375 24.8266 59.1953 24.8266C60.0547 24.8266 60.7708 24.5141 61.3438 23.8891C61.9167 23.251 62.2031 22.4828 62.2031 21.5844V1.58438C62.2031 1.48021 62.2552 1.42813 62.3594 1.42813H66.8516C66.9557 1.42813 67.0078 1.48021 67.0078 1.58438L67.0859 21.5844C67.0859 23.0557 66.7344 24.4099 66.0312 25.6469C65.3151 26.8708 64.3646 27.8474 63.1797 28.5766C61.9948 29.2927 60.6667 29.6508 59.1953 29.6508ZM74.918 29.2602H70.3867C70.2826 29.2602 70.2305 29.1951 70.2305 29.0648L70.3086 1.58438C70.3086 1.48021 70.3607 1.42813 70.4648 1.42813H78.5508C79.9961 1.42813 81.3242 1.77969 82.5352 2.48282C83.7461 3.18594 84.7096 4.12995 85.4258 5.31485C86.1549 6.49975 86.5195 7.84089 86.5195 9.33829C86.5195 10.3148 86.3698 11.2003 86.0703 11.9945C85.7708 12.7888 85.4193 13.4594 85.0156 14.0063C84.625 14.5531 84.2669 14.9568 83.9414 15.2172C85.3867 16.8188 86.1094 18.7003 86.1094 20.8617L86.1484 29.0648C86.1484 29.1951 86.0833 29.2602 85.9531 29.2602H81.4219C81.3177 29.2602 81.2656 29.2211 81.2656 29.143V20.8617C81.2656 19.8982 80.9271 19.0648 80.25 18.3617C79.5729 17.6586 78.7396 17.307 77.75 17.307H75.1133L75.0742 29.0648C75.0742 29.1951 75.0221 29.2602 74.918 29.2602ZM78.5508 6.21329H75.1133V12.5023H78.5508C79.3711 12.5023 80.1003 12.1964 80.7383 11.5844C81.3893 10.9724 81.7148 10.2237 81.7148 9.33829C81.7148 8.49193 81.4023 7.76277 80.7773 7.15079C80.1523 6.52579 79.4102 6.21329 78.5508 6.21329ZM102.613 29.2602H89.6836C89.5794 29.2602 89.5273 29.1951 89.5273 29.0648L89.5664 1.58438C89.5664 1.48021 89.6185 1.42813 89.7227 1.42813H102.574C102.678 1.42813 102.73 1.49324 102.73 1.62344V6.0961C102.73 6.20027 102.678 6.25235 102.574 6.25235H94.3711V12.5023H102.574C102.678 12.5023 102.73 12.5544 102.73 12.6586L102.77 17.1898C102.77 17.294 102.717 17.3461 102.613 17.3461H94.3711V24.3383H102.613C102.717 24.3383 102.77 24.4034 102.77 24.5336V29.1039C102.77 29.2081 102.717 29.2602 102.613 29.2602Z" fill="url(#paint0_linear_14_6)"/>
<path d="M113.121 29.6508C111.702 29.6508 110.393 29.2862 109.195 28.557C108.01 27.8279 107.06 26.8578 106.344 25.6469C105.641 24.4229 105.289 23.0818 105.289 21.6234V19.7875C105.289 19.6443 105.354 19.5727 105.484 19.5727H109.977C110.081 19.5727 110.133 19.6443 110.133 19.7875V21.6234C110.133 22.4958 110.426 23.251 111.012 23.8891C111.598 24.5141 112.301 24.8266 113.121 24.8266C113.954 24.8266 114.664 24.5076 115.25 23.8695C115.836 23.2185 116.129 22.4698 116.129 21.6234C116.129 20.6469 115.491 19.794 114.215 19.0648C114.007 18.9346 113.733 18.7784 113.395 18.5961C113.069 18.4008 112.678 18.1794 112.223 17.932C111.767 17.6846 111.324 17.4438 110.895 17.2094C110.465 16.962 110.048 16.7276 109.645 16.5063C108.186 15.6469 107.099 14.5727 106.383 13.2836C105.68 11.9815 105.328 10.5232 105.328 8.9086C105.328 7.42422 105.693 6.08308 106.422 4.88516C107.151 3.70027 108.102 2.76277 109.273 2.07266C110.458 1.36954 111.741 1.01797 113.121 1.01797C114.54 1.01797 115.842 1.36954 117.027 2.07266C118.212 2.78881 119.156 3.73933 119.859 4.92422C120.576 6.10912 120.934 7.43725 120.934 8.9086V12.1898C120.934 12.294 120.882 12.3461 120.777 12.3461H116.285C116.181 12.3461 116.129 12.294 116.129 12.1898L116.09 8.9086C116.09 7.9711 115.797 7.20938 115.211 6.62344C114.625 6.03751 113.928 5.74454 113.121 5.74454C112.301 5.74454 111.598 6.05704 111.012 6.68204C110.426 7.30704 110.133 8.04922 110.133 8.9086C110.133 9.781 110.315 10.5102 110.68 11.0961C111.057 11.682 111.741 12.2419 112.73 12.7758C112.835 12.8279 113.076 12.9581 113.453 13.1664C113.831 13.3747 114.247 13.6091 114.703 13.8695C115.172 14.1169 115.595 14.3448 115.973 14.5531C116.35 14.7484 116.578 14.8656 116.656 14.9047C117.984 15.6469 119.033 16.5583 119.801 17.6391C120.582 18.7198 120.973 20.0479 120.973 21.6234C120.973 23.1469 120.621 24.5141 119.918 25.725C119.202 26.9359 118.251 27.893 117.066 28.5961C115.882 29.2992 114.566 29.6508 113.121 29.6508ZM128.473 29.2602H123.941C123.811 29.2602 123.746 29.1951 123.746 29.0648L123.785 1.58438C123.785 1.48021 123.837 1.42813 123.941 1.42813H128.434C128.538 1.42813 128.59 1.48021 128.59 1.58438L128.629 29.0648C128.629 29.1951 128.577 29.2602 128.473 29.2602ZM139.469 29.6508C138.023 29.6508 136.721 29.2927 135.562 28.5766C134.391 27.8604 133.447 26.8969 132.73 25.6859C132.027 24.475 131.676 23.1208 131.676 21.6234V8.94766C131.676 7.48933 132.034 6.1612 132.75 4.96329C133.453 3.75235 134.397 2.78881 135.582 2.07266C136.767 1.3435 138.062 0.978912 139.469 0.978912C140.94 0.978912 142.268 1.33047 143.453 2.0336C144.638 2.74975 145.576 3.70678 146.266 4.90469C146.969 6.10261 147.32 7.45027 147.32 8.94766V10.7836C147.32 10.8878 147.255 10.9398 147.125 10.9398H142.633C142.529 10.9398 142.477 10.8878 142.477 10.7836V9.26016C142.477 8.24454 142.19 7.40469 141.617 6.74063C141.044 6.07657 140.328 5.74454 139.469 5.74454C138.701 5.74454 138.017 6.06355 137.418 6.70157C136.819 7.33959 136.52 8.08829 136.52 8.94766V21.6234C136.52 22.4958 136.812 23.251 137.398 23.8891C137.984 24.5141 138.674 24.8266 139.469 24.8266C140.328 24.8266 141.044 24.5206 141.617 23.9086C142.19 23.2836 142.477 22.5219 142.477 21.6234V19.6508H139.684C139.54 19.6508 139.469 19.5857 139.469 19.4555V14.9828C139.469 14.8526 139.54 14.7875 139.684 14.7875H147.164C147.268 14.7875 147.32 14.8526 147.32 14.9828V21.6234C147.32 23.1208 146.969 24.475 146.266 25.6859C145.549 26.8969 144.605 27.8604 143.434 28.5766C142.262 29.2927 140.94 29.6508 139.469 29.6508ZM154.84 29.2602H150.309C150.204 29.2602 150.152 29.1951 150.152 29.0648L150.191 1.58438C150.191 1.48021 150.257 1.42813 150.387 1.42813H154.84C154.97 1.42813 155.035 1.48021 155.035 1.58438L154.996 12.4633H160.992V1.58438C160.992 1.48021 161.044 1.42813 161.148 1.42813H165.602C165.732 1.42813 165.797 1.48021 165.797 1.58438L165.875 29.0648C165.875 29.1951 165.81 29.2602 165.68 29.2602H161.188C161.057 29.2602 160.992 29.1951 160.992 29.0648V17.307H154.996V29.0648C154.996 29.1951 154.944 29.2602 154.84 29.2602ZM177.672 29.2602H173.16C173.043 29.2602 172.984 29.1951 172.984 29.0648V6.25235H167.789C167.659 6.25235 167.594 6.18725 167.594 6.05704L167.633 1.58438C167.633 1.48021 167.685 1.42813 167.789 1.42813H182.984C183.128 1.42813 183.199 1.48021 183.199 1.58438V6.05704C183.199 6.18725 183.147 6.25235 183.043 6.25235H177.789L177.828 29.0648C177.828 29.1951 177.776 29.2602 177.672 29.2602Z" fill="black"/>
<defs>
<linearGradient id="paint0_linear_14_6" x1="172" y1="-19.7398" x2="172" y2="46.9268" gradientUnits="userSpaceOnUse">
<stop stop-color="#7C98B3"/>
<stop offset="1" stop-color="#355879" stop-opacity="0"/>
</linearGradient>
</defs>
</svg>
